<svg xmlns="http://www.w3.org/2000/svg" xmlns:xlink="http://www.w3.org/1999/xlink" width="500" zoomAndPan="magnify" viewBox="0 0 375 374.999991" height="500" preserveAspectRatio="xMidYMid meet" version="1.0"><defs><clipPath id="bcf23105b2"><path d="M 8.328125 53.121094 L 277 53.121094 L 277 321.621094 L 8.328125 321.621094 Z M 8.328125 53.121094 " clip-rule="nonzero"/></clipPath><clipPath id="351ad52ac1"><path d="M 237 109 L 366.828125 109 L 366.828125 180 L 237 180 Z M 237 109 " clip-rule="nonzero"/></clipPath><clipPath id="a45736f0ef"><path d="M 237 201 L 366.828125 201 L 366.828125 272 L 237 272 Z M 237 201 " clip-rule="nonzero"/></clipPath></defs><g clip-path="url(#bcf23105b2)"><path fill="#ffffff" d="M 142.613281 321.867188 C 188.476562 321.867188 229.304688 298.65625 253.355469 263.421875 L 244.125 257.269531 C 240.210938 262.863281 235.738281 268.175781 230.984375 273.207031 C 224.832031 268.175781 216.160156 263.980469 206.09375 260.34375 C 213.085938 241.046875 217.28125 218.117188 217.839844 193.226562 L 265.378906 193.226562 C 265.101562 196.304688 265.101562 199.378906 264.542969 202.175781 L 276.566406 194.347656 C 276.566406 192.109375 276.847656 189.871094 276.847656 187.636719 C 276.847656 183.441406 276.566406 178.964844 276.285156 174.769531 L 265.101562 174.769531 C 265.378906 177.007812 265.378906 179.523438 265.660156 182.042969 L 218.121094 182.042969 C 217.558594 157.152344 213.363281 134.222656 206.375 114.925781 C 216.160156 111.289062 224.550781 106.816406 230.144531 101.5 C 233.78125 105.417969 237.414062 109.332031 240.769531 113.527344 C 241.609375 113.527344 242.449219 113.246094 243.289062 113.246094 L 254.195312 113.246094 C 230.984375 78.570312 192.390625 55.359375 147.925781 53.679688 C 145.96875 53.402344 143.730469 53.121094 141.773438 53.121094 C 139.535156 53.121094 137.578125 53.402344 135.34375 53.679688 C 64.871094 57.597656 8.378906 116.324219 8.378906 187.914062 C 8.378906 261.742188 68.503906 321.867188 142.613281 321.867188 Z M 222.59375 281.039062 C 210.007812 291.945312 195.1875 300.335938 178.6875 305.367188 C 187.636719 296.699219 195.46875 284.953125 201.621094 270.972656 C 210.289062 273.488281 217.558594 277.125 222.59375 281.039062 Z M 222.035156 93.953125 C 217.28125 98.144531 210.570312 101.5 202.179688 104.578125 C 196.027344 90.875 188.476562 79.128906 179.808594 70.460938 C 195.46875 75.496094 209.730469 83.605469 222.035156 93.953125 Z M 148.207031 65.148438 C 165.542969 68.222656 180.644531 84.164062 191.273438 107.933594 C 178.6875 111.289062 163.867188 113.527344 148.207031 114.085938 Z M 148.207031 125.273438 C 165.542969 124.714844 181.765625 122.476562 195.746094 118.5625 C 202.457031 136.738281 206.375 158.832031 206.933594 182.320312 L 148.207031 182.320312 Z M 148.207031 193.507812 L 206.652344 193.507812 C 206.09375 217.277344 201.898438 239.089844 195.1875 257.269531 C 181.203125 253.632812 164.984375 251.675781 147.925781 251.394531 L 147.925781 193.507812 Z M 148.207031 262.582031 C 163.585938 262.863281 178.410156 264.820312 190.992188 267.894531 C 180.367188 291.105469 165.265625 306.765625 148.207031 310.121094 Z M 63.75 282.15625 C 68.226562 278.523438 74.65625 274.886719 82.207031 272.089844 C 88.082031 285.234375 95.632812 296.140625 104.019531 304.53125 C 89.199219 299.496094 75.777344 291.945312 63.75 282.15625 Z M 137.019531 310.121094 C 119.679688 307.605469 104.019531 292.226562 93.113281 268.734375 C 105.976562 265.378906 121.078125 263.140625 137.019531 262.582031 Z M 137.019531 251.394531 C 119.402344 251.953125 102.902344 254.472656 88.917969 258.386719 C 81.929688 239.929688 77.734375 217.558594 77.175781 193.507812 L 137.019531 193.507812 Z M 137.019531 182.320312 L 76.894531 182.320312 C 77.453125 158.832031 81.367188 137.296875 88.082031 118.839844 C 102.34375 122.753906 119.121094 124.992188 137.019531 125.273438 Z M 136.742188 65.148438 C 136.742188 65.148438 137.019531 65.148438 137.019531 65.148438 L 137.019531 114.085938 C 120.800781 113.804688 105.417969 111.847656 92.277344 108.492188 C 103.183594 83.882812 118.84375 67.664062 136.742188 65.148438 Z M 103.460938 71.300781 C 95.070312 79.96875 87.519531 91.433594 81.648438 105.136719 C 73.820312 102.339844 67.105469 98.984375 62.074219 95.070312 C 73.820312 84.722656 88.082031 76.613281 103.460938 71.300781 Z M 53.683594 102.898438 C 59.554688 107.652344 67.667969 112.128906 77.175781 115.484375 C 70.183594 134.78125 66.269531 157.433594 65.707031 182.320312 L 19.84375 182.320312 C 20.964844 151.558594 33.828125 123.59375 53.683594 102.898438 Z M 65.988281 193.507812 C 66.546875 218.957031 71.023438 242.167969 78.292969 262.023438 C 69.0625 265.65625 61.234375 269.851562 55.640625 274.886719 C 34.667969 253.914062 21.242188 225.386719 19.84375 193.789062 L 65.988281 193.789062 Z M 65.988281 193.507812 " fill-opacity="1" fill-rule="nonzero"/></g><g clip-path="url(#351ad52ac1)"><path fill="#ffffff" d="M 237.695312 130.304688 L 237.695312 158.269531 C 237.695312 161.347656 240.210938 163.863281 243.289062 163.863281 L 310.40625 163.863281 L 310.40625 173.652344 C 310.40625 175.609375 311.523438 177.566406 313.199219 178.6875 C 314.039062 179.246094 314.878906 179.246094 315.996094 179.246094 C 317.117188 179.246094 318.234375 178.964844 319.074219 178.40625 L 363.816406 149.042969 C 365.496094 147.925781 366.335938 146.246094 366.335938 144.289062 C 366.335938 142.332031 365.496094 140.652344 363.816406 139.535156 L 319.074219 110.171875 C 317.394531 109.050781 315.160156 109.050781 313.480469 109.890625 C 311.804688 110.730469 310.683594 112.6875 310.683594 114.925781 L 310.683594 124.714844 L 243.289062 124.714844 C 240.210938 124.714844 237.695312 127.230469 237.695312 130.304688 Z M 248.882812 135.898438 L 315.996094 135.898438 C 319.074219 135.898438 321.589844 133.382812 321.589844 130.304688 L 321.589844 125.273438 L 350.675781 144.289062 L 321.589844 163.304688 L 321.589844 158.269531 C 321.589844 155.195312 319.074219 152.679688 315.996094 152.679688 L 248.882812 152.679688 Z M 248.882812 135.898438 " fill-opacity="1" fill-rule="nonzero"/></g><g clip-path="url(#a45736f0ef)"><path fill="#ffffff" d="M 290.828125 202.175781 C 289.152344 201.335938 286.914062 201.335938 285.234375 202.457031 L 240.492188 231.820312 C 238.8125 232.9375 237.972656 234.617188 237.972656 236.574219 C 237.972656 238.53125 238.8125 240.210938 240.492188 241.328125 L 285.234375 270.691406 C 286.074219 271.25 287.191406 271.53125 288.3125 271.53125 C 289.152344 271.53125 290.269531 271.25 291.109375 270.972656 C 292.785156 270.132812 293.90625 268.175781 293.90625 265.9375 L 293.90625 256.148438 L 361.023438 256.148438 C 364.097656 256.148438 366.613281 253.632812 366.613281 250.554688 L 366.613281 222.589844 C 366.613281 219.515625 364.097656 217 361.023438 217 L 293.90625 217 L 293.90625 207.210938 C 293.625 205.253906 292.507812 203.296875 290.828125 202.175781 Z M 355.148438 228.183594 L 355.148438 244.964844 L 288.03125 244.964844 C 284.957031 244.964844 282.4375 247.480469 282.4375 250.554688 L 282.4375 255.589844 L 253.355469 236.574219 L 282.4375 217.558594 L 282.4375 222.589844 C 282.4375 225.667969 284.957031 228.183594 288.03125 228.183594 Z M 355.148438 228.183594 " fill-opacity="1" fill-rule="nonzero"/></g></svg>