<svg xmlns="http://www.w3.org/2000/svg" xmlns:xlink="http://www.w3.org/1999/xlink" width="500" zoomAndPan="magnify" viewBox="0 0 375 374.999991" height="500" preserveAspectRatio="xMidYMid meet" version="1.0"><defs><clipPath id="4c1634e8e9"><path d="M 60.234375 16.957031 L 314.484375 16.957031 L 314.484375 358.207031 L 60.234375 358.207031 Z M 60.234375 16.957031 " clip-rule="nonzero"/></clipPath></defs><g clip-path="url(#4c1634e8e9)"><path fill="#ffffff" d="M 155.125 321.371094 C 125.996094 321.371094 96.863281 321.371094 67.734375 321.371094 L 67.734375 312.039062 C 67.734375 309.96875 66.070312 308.304688 64 308.304688 C 61.945312 308.304688 60.265625 309.984375 60.265625 312.039062 L 60.265625 358.027344 L 155.125 358.027344 C 155.125 345.808594 155.125 333.59375 155.125 321.371094 Z M 181.222656 38.6875 L 193.460938 38.6875 L 193.460938 16.964844 L 181.222656 16.964844 Z M 224.035156 77.171875 L 195.566406 46.15625 L 179.121094 46.15625 L 150.65625 77.171875 C 175.117188 77.171875 199.574219 77.171875 224.035156 77.171875 Z M 168.515625 106.363281 L 206.1875 106.363281 L 206.1875 84.640625 L 168.515625 84.640625 Z M 236.753906 144.847656 L 208.289062 113.828125 L 166.449219 113.828125 L 137.984375 144.847656 C 170.90625 144.847656 203.832031 144.847656 236.753906 144.847656 Z M 155.835938 174.035156 L 218.886719 174.035156 L 218.886719 152.3125 L 155.835938 152.3125 Z M 249.457031 212.519531 L 220.992188 181.5 L 153.757812 181.5 L 125.292969 212.519531 C 166.683594 212.519531 208.070312 212.519531 249.457031 212.519531 Z M 134.691406 241.707031 L 240.035156 241.707031 L 240.035156 219.984375 L 134.691406 219.984375 Z M 270.605469 280.191406 L 242.140625 249.175781 L 132.585938 249.175781 L 104.121094 280.191406 C 159.617188 280.191406 215.109375 280.191406 270.605469 280.191406 Z M 252.5625 313.90625 L 252.5625 287.660156 L 122.15625 287.660156 L 122.15625 313.90625 L 162.59375 313.90625 L 162.59375 350.5625 L 172.726562 350.5625 L 172.726562 305.117188 L 201.996094 305.117188 L 201.996094 350.5625 L 212.398438 350.5625 L 212.398438 313.90625 Z M 314.726562 358.027344 L 314.726562 308.15625 C 314.726562 306.085938 313.0625 304.425781 310.992188 304.425781 C 308.941406 304.425781 307.257812 306.105469 307.257812 308.15625 L 307.257812 321.371094 C 278.128906 321.371094 248.996094 321.371094 219.867188 321.371094 C 219.867188 333.59375 219.867188 345.808594 219.867188 358.027344 Z M 314.726562 358.027344 " fill-opacity="1" fill-rule="evenodd"/></g></svg>