<svg xmlns="http://www.w3.org/2000/svg" xmlns:xlink="http://www.w3.org/1999/xlink" width="500" zoomAndPan="magnify" viewBox="0 0 375 374.999991" height="500" preserveAspectRatio="xMidYMid meet" version="1.0"><defs><clipPath id="e23e381f73"><path d="M 16.703125 39.992188 L 357.949219 39.992188 L 357.949219 334.742188 L 16.703125 334.742188 Z M 16.703125 39.992188 " clip-rule="nonzero"/></clipPath></defs><g clip-path="url(#e23e381f73)"><path fill="#ffffff" d="M 343.226562 236.054688 L 299.320312 105.273438 L 306.382812 106.695312 C 305.804688 109.15625 307.308594 111.628906 309.769531 112.238281 C 312.246094 112.851562 314.757812 111.339844 315.375 108.859375 C 315.988281 106.378906 314.472656 103.871094 311.992188 103.253906 C 309.84375 102.722656 307.683594 103.792969 306.738281 105.699219 L 247.144531 88.125 L 191.441406 71.703125 L 190.921875 62.175781 C 196.867188 61.960938 201.625 57.085938 201.625 51.089844 C 201.625 44.957031 196.648438 39.984375 190.515625 39.984375 C 184.382812 39.984375 179.410156 44.957031 179.410156 51.089844 C 179.410156 56.507812 183.292969 61.015625 188.429688 61.992188 L 187.941406 70.914062 L 132.730469 59.808594 L 70.691406 47.328125 C 70.773438 45.183594 69.34375 43.203125 67.179688 42.664062 C 64.699219 42.050781 62.191406 43.566406 61.578125 46.046875 C 60.964844 48.527344 62.476562 51.035156 64.957031 51.648438 C 67.4375 52.261719 69.941406 50.75 70.558594 48.277344 L 76.59375 50.054688 L 33.007812 180.355469 L 16.734375 180.355469 C 16.734375 180.355469 26.21875 201.179688 76.238281 201.179688 C 126.257812 201.179688 132.394531 180.355469 132.394531 180.355469 L 121.691406 180.355469 L 78.097656 50.503906 L 131.160156 66.152344 L 187.292969 82.699219 L 175.246094 302.824219 C 175.246094 302.824219 175.71875 312.757812 160.109375 315.121094 C 144.5 317.488281 124.632812 318.429688 115.171875 323.636719 C 105.710938 328.84375 104.292969 334.988281 104.292969 334.988281 L 275.046875 334.988281 C 275.046875 334.988281 273.628906 328.839844 264.171875 323.636719 C 254.714844 318.433594 234.84375 317.488281 219.234375 315.121094 C 203.625 312.757812 204.097656 302.824219 204.097656 302.824219 L 192.105469 83.714844 L 245.582031 94.472656 L 298.359375 105.089844 L 254.546875 236.066406 L 242.636719 236.066406 C 242.636719 236.066406 252.121094 256.894531 302.140625 256.894531 C 352.15625 256.894531 358.296875 236.066406 358.296875 236.066406 L 343.230469 236.066406 Z M 118.105469 180.351562 L 36.582031 180.351562 L 77.269531 58.710938 Z M 258.117188 236.054688 L 298.804688 114.414062 L 339.640625 236.054688 Z M 258.117188 236.054688 " fill-opacity="1" fill-rule="nonzero"/></g></svg>