<svg xmlns="http://www.w3.org/2000/svg" xmlns:xlink="http://www.w3.org/1999/xlink" width="500" zoomAndPan="magnify" viewBox="0 0 375 374.999991" height="500" preserveAspectRatio="xMidYMid meet" version="1.0"><defs><clipPath id="47af7cd415"><path d="M 11.460938 39.0625 L 363.210938 39.0625 L 363.210938 336 L 11.460938 336 Z M 11.460938 39.0625 " clip-rule="nonzero"/></clipPath></defs><g clip-path="url(#47af7cd415)"><path fill="#ffffff" d="M 360.609375 224.5625 C 359.34375 225.480469 357.933594 225.902344 356.457031 225.902344 C 354.273438 225.902344 352.089844 224.914062 350.753906 223.015625 L 335.898438 202.457031 C 328.367188 277.292969 265.007812 335.933594 188.203125 335.933594 C 157.652344 335.933594 128.363281 326.710938 103.375 309.324219 C 79.015625 292.289062 60.429688 268.703125 49.730469 241.109375 C 48.320312 237.515625 50.152344 233.433594 53.742188 232.027344 C 57.402344 230.617188 61.414062 232.449219 62.824219 236.039062 C 72.539062 261.03125 89.292969 282.359375 111.398438 297.777344 C 133.996094 313.546875 160.535156 321.855469 188.132812 321.855469 C 258.671875 321.855469 316.679688 267.226562 322.03125 198.023438 L 298.941406 214.707031 C 295.773438 216.960938 291.40625 216.257812 289.085938 213.160156 C 286.832031 209.992188 287.535156 205.625 290.632812 203.304688 L 326.324219 177.46875 C 327.804688 176.339844 329.703125 175.917969 331.535156 176.199219 C 333.367188 176.480469 335.054688 177.539062 336.109375 179.015625 L 361.949219 214.707031 C 364.410156 217.875 363.707031 222.3125 360.609375 224.5625 Z M 84.71875 179.296875 C 87.746094 176.902344 88.308594 172.46875 85.914062 169.441406 C 83.519531 166.414062 79.085938 165.851562 76.058594 168.246094 L 53.953125 185.632812 C 54.867188 112.417969 114.777344 53.144531 188.203125 53.144531 C 215.308594 53.144531 241.425781 61.167969 263.742188 76.375 C 285.566406 91.230469 302.390625 111.925781 312.386719 136.214844 C 313.863281 139.804688 318.019531 141.492188 321.609375 140.015625 C 325.199219 138.535156 326.890625 134.382812 325.410156 130.792969 C 314.289062 103.972656 295.773438 81.089844 271.695312 64.6875 C 247.058594 47.933594 218.191406 39.0625 188.203125 39.0625 C 108.160156 39.0625 42.761719 102.773438 39.945312 182.113281 L 24.105469 161.980469 C 21.710938 158.953125 17.277344 158.390625 14.25 160.78125 C 11.222656 163.175781 10.65625 167.609375 13.050781 170.636719 L 40.296875 205.273438 C 41.703125 207.035156 43.746094 207.949219 45.859375 207.949219 C 47.40625 207.949219 48.882812 207.457031 50.222656 206.472656 Z M 250.929688 214.144531 C 250.929688 199.996094 241.144531 175.425781 221.855469 141.070312 C 207.773438 116.007812 193.554688 94.539062 193.414062 94.328125 C 192.074219 92.355469 189.894531 91.160156 187.570312 91.160156 C 185.246094 91.160156 182.992188 92.355469 181.726562 94.328125 C 181.585938 94.539062 167.296875 116.007812 153.285156 141.070312 C 133.996094 175.425781 124.210938 199.996094 124.210938 214.144531 C 124.210938 249.132812 152.652344 277.574219 187.640625 277.574219 C 222.488281 277.574219 250.929688 249.0625 250.929688 214.144531 Z M 236.847656 214.144531 C 236.847656 241.320312 214.742188 263.496094 187.5 263.496094 C 160.324219 263.496094 138.148438 241.390625 138.148438 214.144531 C 138.148438 192.953125 169.6875 139.03125 187.5 111.152344 C 205.238281 139.03125 236.847656 192.953125 236.847656 214.144531 Z M 200.3125 243.640625 C 213.335938 240.753906 224.457031 226.816406 224.527344 213.371094 C 224.527344 209.5 221.433594 206.332031 217.558594 206.261719 L 217.488281 206.261719 C 213.617188 206.261719 210.449219 209.359375 210.449219 213.230469 C 210.378906 220.128906 203.832031 228.367188 197.214844 229.84375 C 193.414062 230.6875 191.019531 234.488281 191.863281 238.222656 C 192.566406 241.53125 195.523438 243.710938 198.691406 243.710938 C 199.328125 243.851562 199.820312 243.78125 200.3125 243.640625 Z M 200.3125 243.640625 " fill-opacity="1" fill-rule="nonzero"/></g></svg>