<svg xmlns="http://www.w3.org/2000/svg" xmlns:xlink="http://www.w3.org/1999/xlink" width="500" zoomAndPan="magnify" viewBox="0 0 375 374.999991" height="500" preserveAspectRatio="xMidYMid meet" version="1.0"><defs><clipPath id="2a4d40e112"><path d="M 15.507812 60.226562 L 359.757812 60.226562 L 359.757812 314.476562 L 15.507812 314.476562 Z M 15.507812 60.226562 " clip-rule="nonzero"/></clipPath></defs><g clip-path="url(#2a4d40e112)"><path fill="#ffffff" d="M 345.15625 275.9375 C 336.835938 267.621094 326.042969 262.667969 314.433594 261.761719 C 313.597656 256.210938 311.007812 251.0625 306.953125 247.007812 C 301.933594 242.003906 295.25 239.25 288.160156 239.25 L 247.5 239.25 L 247.5 238.019531 C 247.511719 233.445312 247.539062 228.71875 247.570312 224.160156 C 261.34375 222.816406 273.4375 214.625 279.714844 202.054688 L 292.078125 177.316406 C 292.886719 175.695312 292.566406 173.753906 291.292969 172.480469 C 290.019531 171.207031 288.0625 170.886719 286.457031 171.695312 L 261.71875 184.058594 C 258.714844 185.566406 255.972656 187.414062 253.496094 189.523438 C 260.769531 176.003906 261.300781 159.53125 254.167969 145.269531 L 245.945312 128.824219 C 245.234375 127.398438 243.78125 126.503906 242.199219 126.503906 C 240.621094 126.503906 239.164062 127.398438 238.453125 128.824219 L 230.230469 145.269531 C 220.960938 163.808594 224.582031 186.128906 239.234375 200.78125 C 239.277344 200.824219 239.332031 200.851562 239.375 200.894531 C 239.332031 204.695312 239.277344 211.605469 239.222656 219.53125 C 235.429688 214.078125 230.285156 209.535156 224.0625 206.429688 L 199.328125 194.070312 C 197.707031 193.257812 195.761719 193.578125 194.488281 194.851562 C 193.21875 196.125 192.894531 198.082031 193.707031 199.691406 L 206.066406 224.425781 C 209.085938 230.46875 213.449219 235.5 218.679688 239.25 L 202.53125 239.25 C 201.664062 233.753906 199.089844 228.675781 195.078125 224.636719 C 190.058594 219.628906 183.375 216.875 176.285156 216.875 L 156.203125 216.875 C 160.929688 213.226562 164.875 208.527344 167.671875 202.933594 L 180.03125 178.199219 C 180.84375 176.578125 180.519531 174.632812 179.25 173.359375 C 177.976562 172.089844 176.019531 171.765625 174.410156 172.578125 L 149.675781 184.9375 C 143.941406 187.804688 139.132812 191.886719 135.441406 196.78125 C 135.453125 191.46875 135.46875 185.929688 135.480469 180.308594 C 149.269531 178.980469 161.363281 170.773438 167.65625 158.1875 L 180.015625 133.453125 C 180.828125 131.832031 180.507812 129.886719 179.234375 128.613281 C 177.960938 127.34375 176.003906 127.019531 174.394531 127.832031 L 149.660156 140.191406 C 144.011719 143.015625 139.269531 147.015625 135.605469 151.8125 C 135.636719 145.367188 135.675781 139.101562 135.71875 133.230469 C 149.367188 118.5625 152.539062 97.027344 143.535156 79.019531 L 135.3125 62.574219 C 134.601562 61.148438 133.160156 60.253906 131.566406 60.253906 C 129.972656 60.253906 128.53125 61.148438 127.820312 62.574219 L 119.597656 79.019531 C 110.59375 97.011719 113.765625 118.535156 127.359375 133.1875 C 127.34375 136.125 127.300781 142.792969 127.257812 151.492188 C 123.625 146.835938 118.953125 142.933594 113.429688 140.179688 L 88.695312 127.816406 C 87.074219 127.007812 85.128906 127.328125 83.855469 128.601562 C 82.585938 129.875 82.261719 131.832031 83.074219 133.4375 L 95.433594 158.175781 C 101.65625 170.605469 113.542969 178.773438 127.132812 180.238281 C 127.121094 182.535156 127.121094 184.839844 127.105469 187.148438 C 127.089844 190.265625 127.089844 193.214844 127.078125 196.011719 C 123.46875 191.453125 118.871094 187.636719 113.429688 184.925781 L 88.695312 172.5625 C 87.074219 171.753906 85.128906 172.074219 83.855469 173.347656 C 82.585938 174.617188 82.261719 176.578125 83.074219 178.183594 L 95.433594 202.921875 C 98.257812 208.554688 102.257812 213.308594 107.039062 216.960938 C 100.761719 217.460938 94.917969 220.121094 90.402344 224.636719 C 86.316406 228.71875 83.746094 233.90625 82.917969 239.515625 C 77.3125 240.339844 72.125 242.925781 68.027344 247.007812 C 63.988281 251.0625 61.414062 256.195312 60.5625 261.761719 C 48.953125 262.667969 38.160156 267.621094 29.839844 275.9375 C 20.597656 285.183594 15.507812 297.472656 15.507812 310.546875 C 15.507812 312.867188 17.382812 314.742188 19.703125 314.742188 L 355.292969 314.742188 C 357.613281 314.742188 359.488281 312.867188 359.488281 310.546875 C 359.488281 297.472656 354.398438 285.183594 345.15625 275.9375 Z M 102.941406 154.425781 L 96.203125 140.949219 L 109.683594 147.6875 C 119.234375 152.457031 125.609375 161.460938 127.0625 171.808594 C 116.714844 170.355469 107.710938 163.976562 102.941406 154.425781 Z M 265.496094 191.550781 L 278.972656 184.8125 L 272.234375 198.292969 C 267.464844 207.84375 258.460938 214.21875 248.113281 215.671875 C 249.570312 205.3125 255.945312 196.320312 265.496094 191.550781 Z M 237.738281 149.003906 L 242.214844 140.054688 L 246.6875 149.003906 C 253.679688 162.972656 251.792969 179.527344 242.214844 191.511719 C 232.636719 179.527344 230.746094 162.972656 237.738281 149.003906 Z M 213.589844 220.652344 L 206.851562 207.171875 L 220.328125 213.910156 C 229.878906 218.691406 236.257812 227.683594 237.710938 238.03125 C 227.347656 236.589844 218.359375 230.203125 213.589844 220.652344 Z M 153.449219 192.433594 L 166.929688 185.695312 L 160.1875 199.171875 C 155.421875 208.722656 146.417969 215.101562 136.070312 216.554688 C 137.523438 206.207031 143.898438 197.203125 153.449219 192.433594 Z M 153.449219 147.6875 L 166.929688 140.949219 L 160.1875 154.425781 C 155.421875 163.976562 146.417969 170.355469 136.070312 171.808594 C 137.523438 161.460938 143.898438 152.457031 153.449219 147.6875 Z M 127.089844 82.765625 L 131.566406 73.816406 L 136.039062 82.765625 C 143.03125 96.734375 141.144531 113.289062 131.566406 125.273438 C 121.988281 113.304688 120.113281 96.734375 127.089844 82.765625 Z M 102.941406 199.171875 L 96.203125 185.695312 L 109.683594 192.433594 C 119.191406 197.1875 125.566406 206.136719 127.035156 216.441406 C 127.035156 216.484375 127.035156 216.511719 127.035156 216.554688 C 116.703125 215.101562 107.710938 208.710938 102.941406 199.171875 Z M 24.105469 306.351562 C 25.042969 297.09375 29.113281 288.523438 35.769531 281.867188 C 43.433594 274.21875 53.613281 269.996094 64.449219 269.996094 C 74.472656 269.996094 82.625 278.148438 82.625 288.175781 C 82.625 290.496094 84.5 292.371094 86.820312 292.371094 C 89.140625 292.371094 91.015625 290.496094 91.015625 288.175781 C 91.015625 275.101562 81.507812 264.222656 69.035156 262.027344 C 69.746094 258.613281 71.425781 255.46875 73.941406 252.9375 C 77.382812 249.511719 81.953125 247.625 86.808594 247.625 C 89.128906 247.625 91 245.75 91 243.429688 C 91 238.578125 92.890625 234.003906 96.316406 230.566406 C 99.753906 227.140625 104.328125 225.25 109.179688 225.25 L 127.035156 225.25 C 127.078125 244.546875 127.386719 244.9375 128.28125 246.042969 C 129.105469 247.078125 130.320312 247.625 131.550781 247.625 C 132.476562 247.625 133.398438 247.332031 134.167969 246.699219 C 135.441406 245.679688 135.957031 244.074219 135.664062 242.574219 C 135.539062 241.039062 135.480469 234.605469 135.453125 225.238281 L 176.3125 225.238281 C 181.164062 225.238281 185.734375 227.125 189.175781 230.550781 C 191.707031 233.082031 193.386719 236.226562 194.097656 239.652344 C 181.625 241.847656 172.117188 252.726562 172.117188 265.800781 C 172.117188 268.121094 173.992188 269.996094 176.3125 269.996094 C 178.632812 269.996094 180.507812 268.121094 180.507812 265.800781 C 180.507812 255.777344 188.660156 247.625 198.683594 247.625 L 239.109375 247.625 C 239.109375 251.007812 239.109375 256.574219 239.109375 265.800781 C 239.109375 268.121094 240.984375 269.996094 243.304688 269.996094 C 245.625 269.996094 247.5 268.121094 247.5 265.800781 C 247.5 260.78125 247.5 252.769531 247.5 247.625 L 288.175781 247.625 C 293.027344 247.625 297.601562 249.511719 301.039062 252.9375 C 304.464844 256.378906 306.351562 260.949219 306.351562 265.800781 C 306.351562 268.121094 308.226562 269.996094 310.546875 269.996094 C 321.386719 269.996094 331.5625 274.21875 339.226562 281.867188 C 345.882812 288.523438 349.9375 297.09375 350.890625 306.351562 Z M 24.105469 306.351562 " fill-opacity="1" fill-rule="nonzero"/></g></svg>